<mxfile host="app.diagrams.net" agent="Mozilla/5.0 (Windows NT 10.0; Win64; x64; rv:138.0) Gecko/20100101 Firefox/138.0" version="26.2.14">
  <diagram name="Page-1" id="-cZd0hwMgaCJananFPTG">
    <mxGraphModel dx="1105" dy="958" grid="1" gridSize="10" guides="1" tooltips="1" connect="1" arrows="1" fold="1" page="1" pageScale="1" pageWidth="827" pageHeight="1169" math="0" shadow="0">
      <root>
        <mxCell id="0" />
        <mxCell id="1" parent="0" />
        <mxCell id="NVxSvf3HatgSALZbpwbT-2" value="AWS Cloud" style="points=[[0,0],[0.25,0],[0.5,0],[0.75,0],[1,0],[1,0.25],[1,0.5],[1,0.75],[1,1],[0.75,1],[0.5,1],[0.25,1],[0,1],[0,0.75],[0,0.5],[0,0.25]];outlineConnect=0;gradientColor=none;html=1;whiteSpace=wrap;fontSize=12;fontStyle=0;container=1;pointerEvents=0;collapsible=0;recursiveResize=0;shape=mxgraph.aws4.group;grIcon=mxgraph.aws4.group_aws_cloud_alt;strokeColor=#232F3E;fillColor=none;verticalAlign=top;align=left;spacingLeft=30;fontColor=#232F3E;dashed=0;" parent="1" vertex="1">
          <mxGeometry x="240" y="90" width="580" height="620" as="geometry" />
        </mxCell>
        <mxCell id="NVxSvf3HatgSALZbpwbT-3" value="Game server VPC" style="points=[[0,0],[0.25,0],[0.5,0],[0.75,0],[1,0],[1,0.25],[1,0.5],[1,0.75],[1,1],[0.75,1],[0.5,1],[0.25,1],[0,1],[0,0.75],[0,0.5],[0,0.25]];outlineConnect=0;gradientColor=none;html=1;whiteSpace=wrap;fontSize=12;fontStyle=0;container=1;pointerEvents=0;collapsible=0;recursiveResize=0;shape=mxgraph.aws4.group;grIcon=mxgraph.aws4.group_vpc2;strokeColor=#8C4FFF;fillColor=none;verticalAlign=top;align=left;spacingLeft=30;fontColor=#AAB7B8;dashed=0;" parent="NVxSvf3HatgSALZbpwbT-2" vertex="1">
          <mxGeometry x="20" y="190" width="400" height="410" as="geometry" />
        </mxCell>
        <mxCell id="NVxSvf3HatgSALZbpwbT-5" value="Public subnet" style="points=[[0,0],[0.25,0],[0.5,0],[0.75,0],[1,0],[1,0.25],[1,0.5],[1,0.75],[1,1],[0.75,1],[0.5,1],[0.25,1],[0,1],[0,0.75],[0,0.5],[0,0.25]];outlineConnect=0;gradientColor=none;html=1;whiteSpace=wrap;fontSize=12;fontStyle=0;container=1;pointerEvents=0;collapsible=0;recursiveResize=0;shape=mxgraph.aws4.group;grIcon=mxgraph.aws4.group_security_group;grStroke=0;strokeColor=#7AA116;fillColor=#F2F6E8;verticalAlign=top;align=left;spacingLeft=30;fontColor=#248814;dashed=0;" parent="NVxSvf3HatgSALZbpwbT-3" vertex="1">
          <mxGeometry x="38.34" y="40" width="151.66" height="350" as="geometry" />
        </mxCell>
        <mxCell id="NVxSvf3HatgSALZbpwbT-6" value="Game server instance" style="points=[[0,0],[0.25,0],[0.5,0],[0.75,0],[1,0],[1,0.25],[1,0.5],[1,0.75],[1,1],[0.75,1],[0.5,1],[0.25,1],[0,1],[0,0.75],[0,0.5],[0,0.25]];outlineConnect=0;gradientColor=none;html=1;whiteSpace=wrap;fontSize=12;fontStyle=0;container=1;pointerEvents=0;collapsible=0;recursiveResize=0;shape=mxgraph.aws4.group;grIcon=mxgraph.aws4.group_ec2_instance_contents;strokeColor=#D86613;fillColor=none;verticalAlign=top;align=left;spacingLeft=30;fontColor=#D86613;dashed=0;" parent="NVxSvf3HatgSALZbpwbT-5" vertex="1">
          <mxGeometry x="20.83" y="40" width="109.17" height="110" as="geometry" />
        </mxCell>
        <mxCell id="NVxSvf3HatgSALZbpwbT-21" value="&lt;div&gt;lsdc2-pilot&lt;/div&gt;" style="sketch=0;outlineConnect=0;fontColor=#232F3E;gradientColor=none;fillColor=#232F3D;strokeColor=none;dashed=0;verticalLabelPosition=bottom;verticalAlign=top;align=center;html=1;fontSize=12;fontStyle=0;aspect=fixed;pointerEvents=1;shape=mxgraph.aws4.external_sdk;" parent="NVxSvf3HatgSALZbpwbT-6" vertex="1">
          <mxGeometry x="37.56" y="40" width="34.87" height="40" as="geometry" />
        </mxCell>
        <mxCell id="NVxSvf3HatgSALZbpwbT-4" value="Public subnet" style="points=[[0,0],[0.25,0],[0.5,0],[0.75,0],[1,0],[1,0.25],[1,0.5],[1,0.75],[1,1],[0.75,1],[0.5,1],[0.25,1],[0,1],[0,0.75],[0,0.5],[0,0.25]];outlineConnect=0;gradientColor=none;html=1;whiteSpace=wrap;fontSize=12;fontStyle=0;container=1;pointerEvents=0;collapsible=0;recursiveResize=0;shape=mxgraph.aws4.group;grIcon=mxgraph.aws4.group_security_group;grStroke=0;strokeColor=#7AA116;fillColor=#F2F6E8;verticalAlign=top;align=left;spacingLeft=30;fontColor=#248814;dashed=0;" parent="NVxSvf3HatgSALZbpwbT-3" vertex="1">
          <mxGeometry x="209.17" y="40" width="150.83" height="350" as="geometry" />
        </mxCell>
        <mxCell id="NVxSvf3HatgSALZbpwbT-18" value="ECS Cluster" style="fillColor=none;strokeColor=#147EBA;dashed=1;verticalAlign=top;fontStyle=0;fontColor=#147EBA;whiteSpace=wrap;html=1;" parent="NVxSvf3HatgSALZbpwbT-3" vertex="1">
          <mxGeometry x="19.17" y="220" width="360.83" height="160" as="geometry" />
        </mxCell>
        <mxCell id="NVxSvf3HatgSALZbpwbT-20" value="" style="group" parent="NVxSvf3HatgSALZbpwbT-3" vertex="1" connectable="0">
          <mxGeometry x="229.16999999999996" y="245" width="109.17" height="120" as="geometry" />
        </mxCell>
        <mxCell id="NVxSvf3HatgSALZbpwbT-19" value="" style="rounded=0;whiteSpace=wrap;html=1;fillColor=none;strokeColor=#D86613;" parent="NVxSvf3HatgSALZbpwbT-20" vertex="1">
          <mxGeometry width="109.17" height="110" as="geometry" />
        </mxCell>
        <mxCell id="1z4OQr_VBR6PRiINcEbp-32" value="&lt;br&gt;&lt;div&gt;Game server&lt;/div&gt;&lt;div&gt;task&lt;/div&gt;" style="sketch=0;points=[[0,0,0],[0.25,0,0],[0.5,0,0],[0.75,0,0],[1,0,0],[0,1,0],[0.25,1,0],[0.5,1,0],[0.75,1,0],[1,1,0],[0,0.25,0],[0,0.5,0],[0,0.75,0],[1,0.25,0],[1,0.5,0],[1,0.75,0]];outlineConnect=0;fontColor=light-dark(#d86613, #ededed);fillColor=#ED7100;strokeColor=#ffffff;dashed=0;verticalLabelPosition=middle;verticalAlign=middle;align=left;html=1;fontSize=12;fontStyle=0;aspect=fixed;shape=mxgraph.aws4.resourceIcon;resIcon=mxgraph.aws4.fargate;labelPosition=right;spacing=6;" parent="NVxSvf3HatgSALZbpwbT-20" vertex="1">
          <mxGeometry width="30" height="30" as="geometry" />
        </mxCell>
        <mxCell id="Q_A1KULQo6O-BCavjU99-5" value="&lt;div&gt;lsdc2-pilot&lt;/div&gt;" style="sketch=0;outlineConnect=0;fontColor=#232F3E;gradientColor=none;fillColor=#232F3D;strokeColor=none;dashed=0;verticalLabelPosition=bottom;verticalAlign=top;align=center;html=1;fontSize=12;fontStyle=0;aspect=fixed;pointerEvents=1;shape=mxgraph.aws4.external_sdk;" vertex="1" parent="NVxSvf3HatgSALZbpwbT-20">
          <mxGeometry x="37.149999999999906" y="40" width="34.87" height="40" as="geometry" />
        </mxCell>
        <mxCell id="1z4OQr_VBR6PRiINcEbp-12" value="Frontend lambda" style="sketch=0;points=[[0,0,0],[0.25,0,0],[0.5,0,0],[0.75,0,0],[1,0,0],[0,1,0],[0.25,1,0],[0.5,1,0],[0.75,1,0],[1,1,0],[0,0.25,0],[0,0.5,0],[0,0.75,0],[1,0.25,0],[1,0.5,0],[1,0.75,0]];outlineConnect=0;fontColor=#232F3E;fillColor=#ED7100;strokeColor=#ffffff;dashed=0;verticalLabelPosition=bottom;verticalAlign=top;align=center;html=1;fontSize=12;fontStyle=0;aspect=fixed;shape=mxgraph.aws4.resourceIcon;resIcon=mxgraph.aws4.lambda;" parent="NVxSvf3HatgSALZbpwbT-2" vertex="1">
          <mxGeometry x="80" y="110" width="40" height="40" as="geometry" />
        </mxCell>
        <mxCell id="1z4OQr_VBR6PRiINcEbp-14" value="Backend queue" style="sketch=0;points=[[0,0,0],[0.25,0,0],[0.5,0,0],[0.75,0,0],[1,0,0],[0,1,0],[0.25,1,0],[0.5,1,0],[0.75,1,0],[1,1,0],[0,0.25,0],[0,0.5,0],[0,0.75,0],[1,0.25,0],[1,0.5,0],[1,0.75,0]];outlineConnect=0;fontColor=#232F3E;fillColor=#E7157B;strokeColor=#ffffff;dashed=0;verticalLabelPosition=bottom;verticalAlign=top;align=center;html=1;fontSize=12;fontStyle=0;aspect=fixed;shape=mxgraph.aws4.resourceIcon;resIcon=mxgraph.aws4.sqs;" parent="NVxSvf3HatgSALZbpwbT-2" vertex="1">
          <mxGeometry x="240" y="110" width="40" height="40" as="geometry" />
        </mxCell>
        <mxCell id="1z4OQr_VBR6PRiINcEbp-19" value="slow /cmd" style="edgeStyle=orthogonalEdgeStyle;rounded=0;orthogonalLoop=1;jettySize=auto;html=1;entryX=0;entryY=0.5;entryDx=0;entryDy=0;entryPerimeter=0;" parent="NVxSvf3HatgSALZbpwbT-2" source="1z4OQr_VBR6PRiINcEbp-12" target="1z4OQr_VBR6PRiINcEbp-14" edge="1">
          <mxGeometry relative="1" as="geometry" />
        </mxCell>
        <mxCell id="Q_A1KULQo6O-BCavjU99-23" value="start EC2 instance" style="edgeStyle=orthogonalEdgeStyle;rounded=0;orthogonalLoop=1;jettySize=auto;html=1;curved=1;" edge="1" parent="NVxSvf3HatgSALZbpwbT-2" target="NVxSvf3HatgSALZbpwbT-6">
          <mxGeometry relative="1" as="geometry">
            <mxPoint x="400" y="170" as="sourcePoint" />
            <Array as="points">
              <mxPoint x="400" y="210" />
              <mxPoint x="170" y="210" />
            </Array>
          </mxGeometry>
        </mxCell>
        <mxCell id="Q_A1KULQo6O-BCavjU99-24" value="start ECS task" style="edgeStyle=orthogonalEdgeStyle;rounded=0;orthogonalLoop=1;jettySize=auto;html=1;entryX=1;entryY=0.25;entryDx=0;entryDy=0;curved=1;" edge="1" parent="NVxSvf3HatgSALZbpwbT-2" target="NVxSvf3HatgSALZbpwbT-19">
          <mxGeometry x="-0.7008" relative="1" as="geometry">
            <mxPoint x="400" y="170" as="sourcePoint" />
            <Array as="points">
              <mxPoint x="400" y="463" />
            </Array>
            <mxPoint as="offset" />
          </mxGeometry>
        </mxCell>
        <mxCell id="1z4OQr_VBR6PRiINcEbp-18" value="Backend lambda" style="sketch=0;points=[[0,0,0],[0.25,0,0],[0.5,0,0],[0.75,0,0],[1,0,0],[0,1,0],[0.25,1,0],[0.5,1,0],[0.75,1,0],[1,1,0],[0,0.25,0],[0,0.5,0],[0,0.75,0],[1,0.25,0],[1,0.5,0],[1,0.75,0]];outlineConnect=0;fontColor=#232F3E;fillColor=#ED7100;strokeColor=#ffffff;dashed=0;verticalLabelPosition=bottom;verticalAlign=top;align=center;html=1;fontSize=12;fontStyle=0;aspect=fixed;shape=mxgraph.aws4.resourceIcon;resIcon=mxgraph.aws4.lambda;" parent="NVxSvf3HatgSALZbpwbT-2" vertex="1">
          <mxGeometry x="380" y="110" width="40" height="40" as="geometry" />
        </mxCell>
        <mxCell id="1z4OQr_VBR6PRiINcEbp-20" style="edgeStyle=orthogonalEdgeStyle;rounded=0;orthogonalLoop=1;jettySize=auto;html=1;entryX=0;entryY=0.5;entryDx=0;entryDy=0;entryPerimeter=0;" parent="NVxSvf3HatgSALZbpwbT-2" source="1z4OQr_VBR6PRiINcEbp-14" target="1z4OQr_VBR6PRiINcEbp-18" edge="1">
          <mxGeometry relative="1" as="geometry" />
        </mxCell>
        <mxCell id="1z4OQr_VBR6PRiINcEbp-27" value="Savegame bucket" style="sketch=0;points=[[0,0,0],[0.25,0,0],[0.5,0,0],[0.75,0,0],[1,0,0],[0,1,0],[0.25,1,0],[0.5,1,0],[0.75,1,0],[1,1,0],[0,0.25,0],[0,0.5,0],[0,0.75,0],[1,0.25,0],[1,0.5,0],[1,0.75,0]];outlineConnect=0;fontColor=#232F3E;fillColor=#7AA116;strokeColor=#ffffff;dashed=0;verticalLabelPosition=bottom;verticalAlign=top;align=center;html=1;fontSize=12;fontStyle=0;aspect=fixed;shape=mxgraph.aws4.resourceIcon;resIcon=mxgraph.aws4.s3;" parent="NVxSvf3HatgSALZbpwbT-2" vertex="1">
          <mxGeometry x="500" y="270" width="40" height="40" as="geometry" />
        </mxCell>
        <mxCell id="1z4OQr_VBR6PRiINcEbp-38" value="Log group" style="sketch=0;points=[[0,0,0],[0.25,0,0],[0.5,0,0],[0.75,0,0],[1,0,0],[0,1,0],[0.25,1,0],[0.5,1,0],[0.75,1,0],[1,1,0],[0,0.25,0],[0,0.5,0],[0,0.75,0],[1,0.25,0],[1,0.5,0],[1,0.75,0]];points=[[0,0,0],[0.25,0,0],[0.5,0,0],[0.75,0,0],[1,0,0],[0,1,0],[0.25,1,0],[0.5,1,0],[0.75,1,0],[1,1,0],[0,0.25,0],[0,0.5,0],[0,0.75,0],[1,0.25,0],[1,0.5,0],[1,0.75,0]];outlineConnect=0;fontColor=#232F3E;fillColor=#E7157B;strokeColor=#ffffff;dashed=0;verticalLabelPosition=bottom;verticalAlign=top;align=center;html=1;fontSize=12;fontStyle=0;aspect=fixed;shape=mxgraph.aws4.resourceIcon;resIcon=mxgraph.aws4.cloudwatch_2;" parent="NVxSvf3HatgSALZbpwbT-2" vertex="1">
          <mxGeometry x="500" y="350" width="40" height="40" as="geometry" />
        </mxCell>
        <mxCell id="Q_A1KULQo6O-BCavjU99-18" style="rounded=0;orthogonalLoop=1;jettySize=auto;html=1;dashed=1;endSize=3;startSize=3;" edge="1" parent="NVxSvf3HatgSALZbpwbT-2" source="NVxSvf3HatgSALZbpwbT-21" target="1z4OQr_VBR6PRiINcEbp-38">
          <mxGeometry relative="1" as="geometry" />
        </mxCell>
        <mxCell id="Q_A1KULQo6O-BCavjU99-21" value="game files" style="rounded=0;orthogonalLoop=1;jettySize=auto;html=1;entryX=0;entryY=0.5;entryDx=0;entryDy=0;entryPerimeter=0;startArrow=classic;startFill=1;labelBackgroundColor=default;dashed=1;startSize=3;endSize=3;" edge="1" parent="NVxSvf3HatgSALZbpwbT-2" source="NVxSvf3HatgSALZbpwbT-21" target="1z4OQr_VBR6PRiINcEbp-27">
          <mxGeometry relative="1" as="geometry" />
        </mxCell>
        <mxCell id="1z4OQr_VBR6PRiINcEbp-28" value="&lt;div&gt;DynamoDB tables&lt;/div&gt;" style="sketch=0;points=[[0,0,0],[0.25,0,0],[0.5,0,0],[0.75,0,0],[1,0,0],[0,1,0],[0.25,1,0],[0.5,1,0],[0.75,1,0],[1,1,0],[0,0.25,0],[0,0.5,0],[0,0.75,0],[1,0.25,0],[1,0.5,0],[1,0.75,0]];outlineConnect=0;fontColor=#232F3E;fillColor=#C925D1;strokeColor=#ffffff;dashed=0;verticalLabelPosition=bottom;verticalAlign=top;align=center;html=1;fontSize=12;fontStyle=0;aspect=fixed;shape=mxgraph.aws4.resourceIcon;resIcon=mxgraph.aws4.dynamodb;" parent="NVxSvf3HatgSALZbpwbT-2" vertex="1">
          <mxGeometry x="500" y="110" width="40" height="40" as="geometry" />
        </mxCell>
        <mxCell id="Q_A1KULQo6O-BCavjU99-32" style="edgeStyle=orthogonalEdgeStyle;rounded=0;orthogonalLoop=1;jettySize=auto;html=1;dashed=1;endArrow=classic;startFill=1;entryX=0.5;entryY=0;entryDx=0;entryDy=0;entryPerimeter=0;endFill=1;startSize=3;endSize=3;startArrow=classic;" edge="1" parent="NVxSvf3HatgSALZbpwbT-2" source="1z4OQr_VBR6PRiINcEbp-12" target="1z4OQr_VBR6PRiINcEbp-28">
          <mxGeometry relative="1" as="geometry">
            <mxPoint x="480" y="100" as="targetPoint" />
            <Array as="points">
              <mxPoint x="110" y="90" />
              <mxPoint x="520" y="90" />
            </Array>
          </mxGeometry>
        </mxCell>
        <mxCell id="Q_A1KULQo6O-BCavjU99-33" style="edgeStyle=orthogonalEdgeStyle;rounded=0;orthogonalLoop=1;jettySize=auto;html=1;dashed=1;endArrow=classic;startFill=1;endFill=1;startSize=3;endSize=3;entryX=0;entryY=0.5;entryDx=0;entryDy=0;entryPerimeter=0;startArrow=classic;" edge="1" parent="NVxSvf3HatgSALZbpwbT-2" source="1z4OQr_VBR6PRiINcEbp-18" target="1z4OQr_VBR6PRiINcEbp-28">
          <mxGeometry relative="1" as="geometry">
            <mxPoint x="480" y="90" as="targetPoint" />
            <Array as="points" />
          </mxGeometry>
        </mxCell>
        <mxCell id="Q_A1KULQo6O-BCavjU99-19" value="play" style="edgeStyle=orthogonalEdgeStyle;rounded=0;orthogonalLoop=1;jettySize=auto;html=1;entryX=0;entryY=0.5;entryDx=0;entryDy=0;curved=1;" edge="1" parent="1" source="1z4OQr_VBR6PRiINcEbp-6" target="NVxSvf3HatgSALZbpwbT-19">
          <mxGeometry x="-0.4443" y="80" relative="1" as="geometry">
            <Array as="points">
              <mxPoint x="20" y="580" />
            </Array>
            <mxPoint as="offset" />
          </mxGeometry>
        </mxCell>
        <mxCell id="Q_A1KULQo6O-BCavjU99-38" value="/cmd" style="edgeStyle=orthogonalEdgeStyle;rounded=0;orthogonalLoop=1;jettySize=auto;html=1;" edge="1" parent="1" source="1z4OQr_VBR6PRiINcEbp-6" target="Q_A1KULQo6O-BCavjU99-36">
          <mxGeometry relative="1" as="geometry" />
        </mxCell>
        <mxCell id="1z4OQr_VBR6PRiINcEbp-6" value="" style="sketch=0;outlineConnect=0;fontColor=#232F3E;gradientColor=none;fillColor=#232F3D;strokeColor=none;dashed=0;verticalLabelPosition=bottom;verticalAlign=top;align=center;html=1;fontSize=12;fontStyle=0;aspect=fixed;pointerEvents=1;shape=mxgraph.aws4.user;" parent="1" vertex="1">
          <mxGeometry y="200" width="40" height="40" as="geometry" />
        </mxCell>
        <mxCell id="1z4OQr_VBR6PRiINcEbp-13" value="*.lambda-url.*.on.aws/" style="edgeStyle=orthogonalEdgeStyle;rounded=0;orthogonalLoop=1;jettySize=auto;html=1;" parent="1" source="Q_A1KULQo6O-BCavjU99-36" target="1z4OQr_VBR6PRiINcEbp-12" edge="1">
          <mxGeometry relative="1" as="geometry">
            <mxPoint as="offset" />
            <mxPoint x="160" y="220" as="sourcePoint" />
          </mxGeometry>
        </mxCell>
        <mxCell id="1z4OQr_VBR6PRiINcEbp-16" value="3 sec reply / ack" style="edgeStyle=orthogonalEdgeStyle;rounded=0;orthogonalLoop=1;jettySize=auto;html=1;curved=1;exitX=0.5;exitY=0;exitDx=0;exitDy=0;exitPerimeter=0;labelBackgroundColor=default;" parent="1" source="1z4OQr_VBR6PRiINcEbp-12" target="Q_A1KULQo6O-BCavjU99-36" edge="1">
          <mxGeometry relative="1" as="geometry">
            <Array as="points">
              <mxPoint x="340" y="160" />
              <mxPoint x="140" y="160" />
            </Array>
            <mxPoint x="140" y="200" as="targetPoint" />
          </mxGeometry>
        </mxCell>
        <mxCell id="1z4OQr_VBR6PRiINcEbp-21" value="follow-up / message" style="edgeStyle=orthogonalEdgeStyle;rounded=0;orthogonalLoop=1;jettySize=auto;html=1;curved=1;exitX=0.5;exitY=0;exitDx=0;exitDy=0;exitPerimeter=0;" parent="1" source="1z4OQr_VBR6PRiINcEbp-18" target="Q_A1KULQo6O-BCavjU99-36" edge="1">
          <mxGeometry relative="1" as="geometry">
            <mxPoint x="600" y="199.9999999999999" as="sourcePoint" />
            <mxPoint x="140" y="200" as="targetPoint" />
            <Array as="points">
              <mxPoint x="640" y="140" />
              <mxPoint x="140" y="140" />
            </Array>
            <mxPoint as="offset" />
          </mxGeometry>
        </mxCell>
        <mxCell id="Q_A1KULQo6O-BCavjU99-7" value="play" style="edgeStyle=orthogonalEdgeStyle;rounded=0;orthogonalLoop=1;jettySize=auto;html=1;curved=1;" edge="1" parent="1" source="1z4OQr_VBR6PRiINcEbp-6" target="NVxSvf3HatgSALZbpwbT-6">
          <mxGeometry x="0.0852" y="40" relative="1" as="geometry">
            <Array as="points">
              <mxPoint x="20" y="420" />
            </Array>
            <mxPoint as="offset" />
          </mxGeometry>
        </mxCell>
        <mxCell id="Q_A1KULQo6O-BCavjU99-36" value="" style="shape=image;html=1;verticalAlign=top;verticalLabelPosition=bottom;labelBackgroundColor=#ffffff;imageAspect=0;aspect=fixed;image=https://cdn1.iconfinder.com/data/icons/unicons-line-vol-3/24/discord-128.png" vertex="1" parent="1">
          <mxGeometry x="120" y="200" width="40" height="40" as="geometry" />
        </mxCell>
      </root>
    </mxGraphModel>
  </diagram>
</mxfile>
